<svg xmlns="http://www.w3.org/2000/svg" viewBox="0 0 23 23"><path d="M1 1h7v7h-7zM11 1h1v1h-1zM15 1h7v7h-7zM2 2v5h5v-5zM10 2h1v1h1v-1h2v7h-2v3h-1v-1h-1v-1h-1v-1h1v-1h1v-1h1v1h1v-1h-1v-1h1v-2h-3zM16 2v5h5v-5zM3 3h3v3h-3zM17 3h3v3h-3zM10 5h2v1h-1v1h-1v1h-1v-2h1zM1 9h1v1h1v1h-1v2h-1zM4 9h1v1h-1zM6 9h2v1h-2zM14 9h1v1h-1zM16 9h1v1h-1zM8 10h1v1h-1zM17 10h2v1h1v1h-1v1h-1v-2h-1zM20 10h2v2h-1v-1h-1zM3 11h3v2h-1v-1h-1v1h1v1h-2zM7 11h1v1h-1zM13 11h4v1h-1v1h-1v-1h-2zM8 12h1v1h-1zM12 12h1v1h-1zM6 13h2v1h-2zM9 13h1v2h-1zM13 13h1v1h-1zM17 13h1v1h-1zM21 13h1v2h-1v1h-3v1h-2v-2h-1v-1h2v1h1v-1h3zM12 14h1v1h-1zM1 15h7v7h-7zM11 15h1v1h-1zM2 16v5h5v-5zM9 16h1v1h-1zM12 16h2v1h-1v1h-2v-1h1zM21 16h1v1h-1zM3 17h3v3h-3zM14 17h1v1h-1zM20 17h1v1h1v2h-1v-1h-1v1h-2v1h-1v1h-8v-1h2v-2h1v1h1v-1h2v2h1v-2h1v-1h1v1h1v-1h1zM9 18h2v1h-2zM18 21h1v1h-1zM20 21h1v1h-1z"/></svg>